<?xml version="1.0" encoding="UTF-8" standalone="no"?><svg xmlns="http://www.w3.org/2000/svg" xmlns:xlink="http://www.w3.org/1999/xlink" contentStyleType="text/css" height="1151px" preserveAspectRatio="none" style="width:1436px;height:1151px;background:#FFFFFF;" version="1.1" viewBox="0 0 1436 1151" width="1436px" zoomAndPan="magnify"><defs/><g><rect fill="none" height="26.2969" id="_title" style="stroke:none;stroke-width:1.0;" width="282" x="576" y="10"/><text fill="#000000" font-family="sans-serif" font-size="14" font-weight="bold" lengthAdjust="spacing" textLength="272" x="581" y="27.9951">Requesting data (not signing data)</text><line style="stroke:#181818;stroke-width:0.5;stroke-dasharray:5.0,5.0;" x1="155" x2="155" y1="73.5938" y2="1115.7734"/><line style="stroke:#181818;stroke-width:0.5;stroke-dasharray:5.0,5.0;" x1="457.5" x2="457.5" y1="73.5938" y2="1115.7734"/><line style="stroke:#181818;stroke-width:0.5;stroke-dasharray:5.0,5.0;" x1="621" x2="621" y1="73.5938" y2="1115.7734"/><line style="stroke:#181818;stroke-width:0.5;stroke-dasharray:5.0,5.0;" x1="862.5" x2="862.5" y1="73.5938" y2="1115.7734"/><line style="stroke:#181818;stroke-width:0.5;stroke-dasharray:5.0,5.0;" x1="983.5" x2="983.5" y1="73.5938" y2="1115.7734"/><line style="stroke:#181818;stroke-width:0.5;stroke-dasharray:5.0,5.0;" x1="1229" x2="1229" y1="73.5938" y2="1115.7734"/><line style="stroke:#181818;stroke-width:0.5;stroke-dasharray:5.0,5.0;" x1="1380" x2="1380" y1="73.5938" y2="1115.7734"/><rect fill="#E2E2F0" height="30.2969" rx="2.5" ry="2.5" style="stroke:#181818;stroke-width:0.5;" width="77" x="117" y="42.2969"/><text fill="#000000" font-family="sans-serif" font-size="14" lengthAdjust="spacing" textLength="63" x="124" y="62.292">AppLogic</text><rect fill="#E2E2F0" height="30.2969" rx="2.5" ry="2.5" style="stroke:#181818;stroke-width:0.5;" width="77" x="117" y="1114.7734"/><text fill="#000000" font-family="sans-serif" font-size="14" lengthAdjust="spacing" textLength="63" x="124" y="1134.7686">AppLogic</text><rect fill="#E2E2F0" height="30.2969" rx="2.5" ry="2.5" style="stroke:#181818;stroke-width:0.5;" width="66" x="424.5" y="42.2969"/><text fill="#000000" font-family="sans-serif" font-size="14" lengthAdjust="spacing" textLength="52" x="431.5" y="62.292">SolidLib</text><rect fill="#E2E2F0" height="30.2969" rx="2.5" ry="2.5" style="stroke:#181818;stroke-width:0.5;" width="66" x="424.5" y="1114.7734"/><text fill="#000000" font-family="sans-serif" font-size="14" lengthAdjust="spacing" textLength="52" x="431.5" y="1134.7686">SolidLib</text><rect fill="#E2E2F0" height="30.2969" rx="2.5" ry="2.5" style="stroke:#181818;stroke-width:0.5;" width="37" x="603" y="42.2969"/><text fill="#000000" font-family="sans-serif" font-size="14" lengthAdjust="spacing" textLength="23" x="610" y="62.292">IDP</text><rect fill="#E2E2F0" height="30.2969" rx="2.5" ry="2.5" style="stroke:#181818;stroke-width:0.5;" width="37" x="603" y="1114.7734"/><text fill="#000000" font-family="sans-serif" font-size="14" lengthAdjust="spacing" textLength="23" x="610" y="1134.7686">IDP</text><rect fill="#E2E2F0" height="30.2969" rx="2.5" ry="2.5" style="stroke:#181818;stroke-width:0.5;" width="106" x="809.5" y="42.2969"/><text fill="#000000" font-family="sans-serif" font-size="14" lengthAdjust="spacing" textLength="92" x="816.5" y="62.292">DataInterface</text><rect fill="#E2E2F0" height="30.2969" rx="2.5" ry="2.5" style="stroke:#181818;stroke-width:0.5;" width="106" x="809.5" y="1114.7734"/><text fill="#000000" font-family="sans-serif" font-size="14" lengthAdjust="spacing" textLength="92" x="816.5" y="1134.7686">DataInterface</text><rect fill="#E2E2F0" height="30.2969" rx="2.5" ry="2.5" style="stroke:#181818;stroke-width:0.5;" width="116" x="925.5" y="42.2969"/><text fill="#000000" font-family="sans-serif" font-size="14" lengthAdjust="spacing" textLength="102" x="932.5" y="62.292">AuthZInterface</text><rect fill="#E2E2F0" height="30.2969" rx="2.5" ry="2.5" style="stroke:#181818;stroke-width:0.5;" width="116" x="925.5" y="1114.7734"/><text fill="#000000" font-family="sans-serif" font-size="14" lengthAdjust="spacing" textLength="102" x="932.5" y="1134.7686">AuthZInterface</text><rect fill="#E2E2F0" height="30.2969" rx="2.5" ry="2.5" style="stroke:#181818;stroke-width:0.5;" width="183" x="1138" y="42.2969"/><text fill="#000000" font-family="sans-serif" font-size="14" lengthAdjust="spacing" textLength="169" x="1145" y="62.292">PolicyNegotiationInterfac</text><rect fill="#E2E2F0" height="30.2969" rx="2.5" ry="2.5" style="stroke:#181818;stroke-width:0.5;" width="183" x="1138" y="1114.7734"/><text fill="#000000" font-family="sans-serif" font-size="14" lengthAdjust="spacing" textLength="169" x="1145" y="1134.7686">PolicyNegotiationInterfac</text><rect fill="#E2E2F0" height="30.2969" rx="2.5" ry="2.5" style="stroke:#181818;stroke-width:0.5;" width="99" x="1331" y="42.2969"/><text fill="#000000" font-family="sans-serif" font-size="14" lengthAdjust="spacing" textLength="85" x="1338" y="62.292">LogInterface</text><rect fill="#E2E2F0" height="30.2969" rx="2.5" ry="2.5" style="stroke:#181818;stroke-width:0.5;" width="99" x="1331" y="1114.7734"/><text fill="#000000" font-family="sans-serif" font-size="14" lengthAdjust="spacing" textLength="85" x="1338" y="1134.7686">LogInterface</text><polygon fill="#181818" points="445.5,100.7266,455.5,104.7266,445.5,108.7266,449.5,104.7266" style="stroke:#181818;stroke-width:1.0;"/><line style="stroke:#181818;stroke-width:1.0;" x1="155.5" x2="451.5" y1="104.7266" y2="104.7266"/><text fill="#000000" font-family="sans-serif" font-size="13" lengthAdjust="spacing" textLength="76" x="162.5" y="99.6606">Login (IDP?)</text><polygon fill="#181818" points="609.5,129.8594,619.5,133.8594,609.5,137.8594,613.5,133.8594" style="stroke:#181818;stroke-width:1.0;"/><line style="stroke:#181818;stroke-width:1.0;" x1="457.5" x2="615.5" y1="133.8594" y2="133.8594"/><text fill="#000000" font-family="sans-serif" font-size="13" lengthAdjust="spacing" textLength="117" x="464.5" y="128.7935">LoginRedirect(IDP)</text><polygon fill="#181818" points="468.5,158.9922,458.5,162.9922,468.5,166.9922,464.5,162.9922" style="stroke:#181818;stroke-width:1.0;"/><line style="stroke:#181818;stroke-width:1.0;" x1="462.5" x2="620.5" y1="162.9922" y2="162.9922"/><text fill="#000000" font-family="sans-serif" font-size="13" lengthAdjust="spacing" textLength="140" x="474.5" y="157.9263">Redirect(TokenAuthN)</text><polygon fill="#181818" points="166.5,188.125,156.5,192.125,166.5,196.125,162.5,192.125" style="stroke:#181818;stroke-width:1.0;"/><line style="stroke:#181818;stroke-width:1.0;" x1="160.5" x2="456.5" y1="192.125" y2="192.125"/><text fill="#000000" font-family="sans-serif" font-size="13" lengthAdjust="spacing" textLength="118" x="172.5" y="187.0591">LoggedIn(Session)</text><path d="M274,205.125 L274,230.125 L641,230.125 L641,215.125 L631,205.125 L274,205.125 " fill="#FEFFDD" style="stroke:#181818;stroke-width:0.5;"/><path d="M631,205.125 L631,215.125 L641,215.125 L631,205.125 " fill="#FEFFDD" style="stroke:#181818;stroke-width:0.5;"/><text fill="#000000" font-family="sans-serif" font-size="13" lengthAdjust="spacing" textLength="346" x="280" y="222.1919">Lib knows WebID, client, issuer, well knowns, endpoints</text><path d="M5,240.2578 L5,310.2578 L307,310.2578 L307,250.2578 L297,240.2578 L5,240.2578 " fill="#FEFFDD" style="stroke:#181818;stroke-width:0.5;"/><path d="M297,240.2578 L297,250.2578 L307,250.2578 L297,240.2578 " fill="#FEFFDD" style="stroke:#181818;stroke-width:0.5;"/><text fill="#000000" font-family="sans-serif" font-size="13" lengthAdjust="spacing" textLength="222" x="11" y="257.3247">If we match the context of a Policy,</text><text fill="#000000" font-family="sans-serif" font-size="13" lengthAdjust="spacing" textLength="206" x="11" y="272.4575">we automatically agree and sign</text><text fill="#000000" font-family="sans-serif" font-size="13" lengthAdjust="spacing" textLength="281" x="11" y="287.5903">We match on the Intersection of the context</text><text fill="#000000" font-family="sans-serif" font-size="13" lengthAdjust="spacing" textLength="239" x="11" y="302.7231">This needs to be in AuthZ Logic - TBC</text><polygon fill="#181818" points="445.5,332.9219,455.5,336.9219,445.5,340.9219,449.5,336.9219" style="stroke:#181818;stroke-width:1.0;"/><line style="stroke:#181818;stroke-width:1.0;" x1="155.5" x2="451.5" y1="336.9219" y2="336.9219"/><text fill="#000000" font-family="sans-serif" font-size="13" lengthAdjust="spacing" textLength="278" x="162.5" y="331.856">session.GetData(query, context: purpose[])</text><path d="M757,349.9219 L757,374.9219 L968,374.9219 L968,359.9219 L958,349.9219 L757,349.9219 " fill="#FEFFDD" style="stroke:#181818;stroke-width:0.5;"/><path d="M958,349.9219 L958,359.9219 L968,359.9219 L958,349.9219 " fill="#FEFFDD" style="stroke:#181818;stroke-width:0.5;"/><text fill="#000000" font-family="sans-serif" font-size="13" lengthAdjust="spacing" textLength="190" x="763" y="366.9888">GET = GET Data, prov, signed</text><polygon fill="#181818" points="850.5,397.1875,860.5,401.1875,850.5,405.1875,854.5,401.1875" style="stroke:#181818;stroke-width:1.0;"/><line style="stroke:#181818;stroke-width:1.0;" x1="457.5" x2="856.5" y1="401.1875" y2="401.1875"/><text fill="#000000" font-family="sans-serif" font-size="13" lengthAdjust="spacing" textLength="381" x="464.5" y="396.1216">call(TokenAuthN, Query, Action: GET\+, context: purpose[] )</text><polygon fill="#181818" points="468.5,426.3203,458.5,430.3203,468.5,434.3203,464.5,430.3203" style="stroke:#181818;stroke-width:1.0;"/><line style="stroke:#181818;stroke-width:1.0;" x1="462.5" x2="861.5" y1="430.3203" y2="430.3203"/><text fill="#000000" font-family="sans-serif" font-size="13" lengthAdjust="spacing" textLength="354" x="474.5" y="425.2544">NoTokenAuthZ(redirect: EndpointAuthZ, action: GET\+)</text><polygon fill="#181818" points="971.5,455.4531,981.5,459.4531,971.5,463.4531,975.5,459.4531" style="stroke:#181818;stroke-width:1.0;"/><line style="stroke:#181818;stroke-width:1.0;" x1="457.5" x2="977.5" y1="459.4531" y2="459.4531"/><text fill="#000000" font-family="sans-serif" font-size="13" lengthAdjust="spacing" textLength="462" x="464.5" y="454.3872">call(subj: TokenAuthN, action: GET\+, resource: query, context: purpose)</text><path d="M844,472.4531 L844,557.4531 L1122,557.4531 L1122,482.4531 L1112,472.4531 L844,472.4531 " fill="#FEFFDD" style="stroke:#181818;stroke-width:0.5;"/><path d="M1112,472.4531 L1112,482.4531 L1122,482.4531 L1112,472.4531 " fill="#FEFFDD" style="stroke:#181818;stroke-width:0.5;"/><text fill="#000000" font-family="sans-serif" font-size="13" lengthAdjust="spacing" textLength="201" x="850" y="489.52">1. Policy Matching and Retrieval</text><text fill="#000000" font-family="sans-serif" font-size="13" lengthAdjust="spacing" textLength="182" x="850" y="504.6528">2. Execute matching Policies</text><text fill="#000000" font-family="sans-serif" font-size="13" lengthAdjust="spacing" textLength="191" x="850" y="519.7856">3. Instantiate relevant Policies</text><text fill="#000000" font-family="sans-serif" font-size="13" lengthAdjust="spacing" textLength="257" x="850" y="534.9185">4.Decide for access OR extra obligations</text><text fill="#000000" font-family="sans-serif" font-size="13" lengthAdjust="spacing" textLength="242" x="850" y="550.0513">(This is where we can do negotiations)</text><path d="M861,568.1172 L861,593.1172 L1106,593.1172 L1106,578.1172 L1096,568.1172 L861,568.1172 " fill="#FEFFDD" style="stroke:#181818;stroke-width:0.5;"/><path d="M1096,568.1172 L1096,578.1172 L1106,578.1172 L1096,568.1172 " fill="#FEFFDD" style="stroke:#181818;stroke-width:0.5;"/><text fill="#000000" font-family="sans-serif" font-size="13" lengthAdjust="spacing" textLength="224" x="867" y="585.1841">Obligation for signature is detected</text><path d="M834,603.25 L834,643.25 L1133,643.25 L1133,613.25 L1123,603.25 L834,603.25 " fill="#FEFFDD" style="stroke:#181818;stroke-width:0.5;"/><path d="M1123,603.25 L1123,613.25 L1133,613.25 L1123,603.25 " fill="#FEFFDD" style="stroke:#181818;stroke-width:0.5;"/><text fill="#000000" font-family="sans-serif" font-size="13" lengthAdjust="spacing" textLength="267" x="840" y="620.3169">We sign internally the instantiated Policies</text><text fill="#000000" font-family="sans-serif" font-size="13" lengthAdjust="spacing" textLength="278" x="840" y="635.4497">on behalf of owner (in the Sign Component)</text><polygon fill="#181818" points="1217.5,665.6484,1227.5,669.6484,1217.5,673.6484,1221.5,669.6484" style="stroke:#181818;stroke-width:1.0;"/><line style="stroke:#181818;stroke-width:1.0;" x1="983.5" x2="1223.5" y1="669.6484" y2="669.6484"/><text fill="#000000" font-family="sans-serif" font-size="13" lengthAdjust="spacing" textLength="222" x="990.5" y="664.5825">checkNegotiationRequirements(...)</text><polygon fill="#181818" points="994.5,694.7813,984.5,698.7813,994.5,702.7813,990.5,698.7813" style="stroke:#181818;stroke-width:1.0;"/><line style="stroke:#181818;stroke-width:1.0;" x1="988.5" x2="1228.5" y1="698.7813" y2="698.7813"/><text fill="#000000" font-family="sans-serif" font-size="13" lengthAdjust="spacing" textLength="203" x="1000.5" y="693.7153">return(SignaturePreObligations)</text><polygon fill="#181818" points="468.5,723.9141,458.5,727.9141,468.5,731.9141,464.5,727.9141" style="stroke:#181818;stroke-width:1.0;"/><line style="stroke:#181818;stroke-width:1.0;" x1="462.5" x2="982.5" y1="727.9141" y2="727.9141"/><text fill="#000000" font-family="sans-serif" font-size="13" lengthAdjust="spacing" textLength="253" x="474.5" y="722.8481">return (Instantiated Signed Polic(y/ies) )</text><path d="M196,740.9141 L196,810.9141 L719,810.9141 L719,750.9141 L709,740.9141 L196,740.9141 " fill="#FEFFDD" style="stroke:#181818;stroke-width:0.5;"/><path d="M709,740.9141 L709,750.9141 L719,750.9141 L709,740.9141 " fill="#FEFFDD" style="stroke:#181818;stroke-width:0.5;"/><text fill="#000000" font-family="sans-serif" font-size="13" lengthAdjust="spacing" textLength="221" x="202" y="757.981">Go through list of policies and Sign</text><text fill="#000000" font-family="sans-serif" font-size="13" lengthAdjust="spacing" textLength="182" x="202" y="773.1138">Now we have an agreement.</text><text fill="#000000" font-family="sans-serif" font-size="13" lengthAdjust="spacing" textLength="314" x="202" y="788.2466">Agreement = doubly signed instantiated policies.</text><text fill="#000000" font-family="sans-serif" font-size="13" lengthAdjust="spacing" textLength="502" x="202" y="803.3794">(IF we do signing before first call to AuthZInterface, then we only need one call)</text><polygon fill="#181818" points="971.5,833.5781,981.5,837.5781,971.5,841.5781,975.5,837.5781" style="stroke:#181818;stroke-width:1.0;"/><line style="stroke:#181818;stroke-width:1.0;" x1="457.5" x2="977.5" y1="837.5781" y2="837.5781"/><text fill="#000000" font-family="sans-serif" font-size="13" lengthAdjust="spacing" textLength="199" x="464.5" y="832.5122">call(agreements: Agreement[])</text><polygon fill="#181818" points="1217.5,862.7109,1227.5,866.7109,1217.5,870.7109,1221.5,866.7109" style="stroke:#181818;stroke-width:1.0;"/><line style="stroke:#181818;stroke-width:1.0;" x1="983.5" x2="1223.5" y1="866.7109" y2="866.7109"/><text fill="#000000" font-family="sans-serif" font-size="13" lengthAdjust="spacing" textLength="222" x="990.5" y="861.645">checkNegotiationRequirements(...)</text><path d="M1113,879.7109 L1113,919.7109 L1346,919.7109 L1346,889.7109 L1336,879.7109 L1113,879.7109 " fill="#FEFFDD" style="stroke:#181818;stroke-width:0.5;"/><path d="M1336,879.7109 L1336,889.7109 L1346,889.7109 L1336,879.7109 " fill="#FEFFDD" style="stroke:#181818;stroke-width:0.5;"/><text fill="#000000" font-family="sans-serif" font-size="13" lengthAdjust="spacing" textLength="143" x="1119" y="896.7778">1. verify double signed</text><text fill="#000000" font-family="sans-serif" font-size="13" lengthAdjust="spacing" textLength="212" x="1119" y="911.9106">2. store agreements in Log Store</text><polygon fill="#181818" points="994.5,942.1094,984.5,946.1094,994.5,950.1094,990.5,946.1094" style="stroke:#181818;stroke-width:1.0;"/><line style="stroke:#181818;stroke-width:1.0;" x1="988.5" x2="1228.5" y1="946.1094" y2="946.1094"/><text fill="#000000" font-family="sans-serif" font-size="13" lengthAdjust="spacing" textLength="67" x="1000.5" y="941.0435">return(OK)</text><polygon fill="#181818" points="468.5,971.2422,458.5,975.2422,468.5,979.2422,464.5,975.2422" style="stroke:#181818;stroke-width:1.0;"/><line style="stroke:#181818;stroke-width:1.0;" x1="462.5" x2="982.5" y1="975.2422" y2="975.2422"/><text fill="#000000" font-family="sans-serif" font-size="13" lengthAdjust="spacing" textLength="122" x="474.5" y="970.1763">return authZ token</text><polygon fill="#181818" points="850.5,1000.375,860.5,1004.375,850.5,1008.375,854.5,1004.375" style="stroke:#181818;stroke-width:1.0;"/><line style="stroke:#181818;stroke-width:1.0;" x1="457.5" x2="856.5" y1="1004.375" y2="1004.375"/><text fill="#000000" font-family="sans-serif" font-size="13" lengthAdjust="spacing" textLength="255" x="464.5" y="999.3091">call(TokenAuthZ, Query, Action: GET\+ )</text><polygon fill="#181818" points="468.5,1029.5078,458.5,1033.5078,468.5,1037.5078,464.5,1033.5078" style="stroke:#181818;stroke-width:1.0;"/><line style="stroke:#181818;stroke-width:1.0;" x1="462.5" x2="861.5" y1="1033.5078" y2="1033.5078"/><text fill="#000000" font-family="sans-serif" font-size="13" lengthAdjust="spacing" textLength="89" x="474.5" y="1028.4419">return Data\+</text><path d="M261,1046.5078 L261,1071.5078 L653,1071.5078 L653,1056.5078 L643,1046.5078 L261,1046.5078 " fill="#FEFFDD" style="stroke:#181818;stroke-width:0.5;"/><path d="M643,1046.5078 L643,1056.5078 L653,1056.5078 L643,1046.5078 " fill="#FEFFDD" style="stroke:#181818;stroke-width:0.5;"/><text fill="#000000" font-family="sans-serif" font-size="13" lengthAdjust="spacing" textLength="371" x="267" y="1063.5747">We merge the Data with the agreements so we have Data</text><polygon fill="#181818" points="166.5,1093.7734,156.5,1097.7734,166.5,1101.7734,162.5,1097.7734" style="stroke:#181818;stroke-width:1.0;"/><line style="stroke:#181818;stroke-width:1.0;" x1="160.5" x2="456.5" y1="1097.7734" y2="1097.7734"/><text fill="#000000" font-family="sans-serif" font-size="13" lengthAdjust="spacing" textLength="104" x="172.5" y="1092.7075">return Data\+\+</text><!--MD5=[8fe6520b76d296e5b1c3f7db040c1581]
@startuml
title Requesting data (not signing data)


participant AppLogic
participant SolidLib

participant IDP

participant DataInterface
participant AuthZInterface
participant PolicyNegotiationInterfac
participant LogInterface

AppLogic->SolidLib: Login (IDP?)
SolidLib->IDP: LoginRedirect(IDP)
IDP->SolidLib: Redirect(TokenAuthN)
SolidLib->AppLogic: LoggedIn(Session)
note over SolidLib: Lib knows WebID, client, issuer, well knowns, endpoints


note over AppLogic: If we match the context of a Policy,\nwe automatically agree and sign\nWe match on the Intersection of the context\nThis needs to be in AuthZ Logic - TBC

AppLogic->SolidLib: session.GetData(query, context: purpose[])
note over DataInterface:GET\+ = GET Data, prov, signed
SolidLib->DataInterface:call(TokenAuthN, Query, Action: GET\+, context: purpose[] )
DataInterface->SolidLib: NoTokenAuthZ(redirect: EndpointAuthZ, action: GET\+)
SolidLib->AuthZInterface: call(subj: TokenAuthN, action: GET\+, resource: query, context: purpose)
note over AuthZInterface: 1. Policy Matching and Retrieval\n2. Execute matching Policies\n3. Instantiate relevant Policies\n4.Decide for access OR extra obligations\n(This is where we can do negotiations)
note over AuthZInterface: Obligation for signature is detected
note over AuthZInterface: We sign internally the instantiated Policies\non behalf of owner (in the Sign Component)
AuthZInterface->PolicyNegotiationInterfac: checkNegotiationRequirements(...)
PolicyNegotiationInterfac->AuthZInterface:return(SignaturePreObligations)
AuthZInterface->SolidLib: return (Instantiated Signed Polic(y/ies) )

note over SolidLib:Go through list of policies and Sign\nNow we have an agreement.\nAgreement = doubly signed instantiated policies. \n(IF we do signing before first call to AuthZInterface, then we only need one call)

SolidLib->AuthZInterface:call(agreements: Agreement[])

AuthZInterface->PolicyNegotiationInterfac: checkNegotiationRequirements(...)

note over PolicyNegotiationInterfac: 1. verify double signed\n2. store agreements in Log Store
PolicyNegotiationInterfac->AuthZInterface:return(OK)
AuthZInterface->SolidLib: return authZ token

SolidLib->DataInterface:call(TokenAuthZ, Query, Action: GET\+ )
DataInterface->SolidLib: return Data\+
note over SolidLib: We merge the Data\+ with the agreements so we have Data\+\+
SolidLib->AppLogic: return Data\+\+

@enduml

PlantUML version 1.2022.7(Mon Aug 22 19:01:30 CEST 2022)
(GPL source distribution)
Java Runtime: OpenJDK Runtime Environment
JVM: OpenJDK 64-Bit Server VM
Default Encoding: UTF-8
Language: en
Country: GB
--></g></svg>